<?xml version="1.0" encoding="utf-8"?>
<!-- Generator: Adobe Illustrator 19.0.0, SVG Export Plug-In . SVG Version: 6.00 Build 0)  -->
<svg version="1.1" id="Слой_1" xmlns="http://www.w3.org/2000/svg" xmlns:xlink="http://www.w3.org/1999/xlink" x="0px" y="0px"
	 viewBox="0 0 220 90" style="enable-background:new 0 0 220 90;" xml:space="preserve">
<style type="text/css">
	.st0{fill-rule:evenodd;clip-rule:evenodd;fill:#E4A738;}
	.st1{fill-rule:evenodd;clip-rule:evenodd;fill:#262424;}
	.st2{fill-rule:evenodd;clip-rule:evenodd;fill:#030406;}
	.st3{fill-rule:evenodd;clip-rule:evenodd;fill:#FFFFFF;}
	.st4{fill:#E4A738;}
	.st5{fill:#030406;}
</style>
<g>
	<path class="st0" d="M15.1,54.5l0.4,0l6.1,6.4c0,0,1,1,1,1.1c-3.5,2-11.1,6.5-11.1,6.5l1.1-3.4l-3.6,0.8l1.5-3.7l-3.6,0.5
		L15.1,54.5z"/>
	<path class="st0" d="M21.2,63.3l0.4,0l6.1,6.4c0,0,1,1,1,1.1c-3.5,2-11.1,6.5-11.1,6.5l1.1-3.4L15,74.8l1.5-3.7l-3.6,0.5L21.2,63.3
		z"/>
	<path class="st1" d="M30.6,10.5c-0.6,3.1-0.6,6.3-1.4,9.4c-1.2-0.3-2.3-1.5-3.4-3c0.6-2.2,2.4-5,4.7-6.6
		C30.6,10.4,30.6,10.5,30.6,10.5z"/>
	<path class="st2" d="M48,48.6c0,12.9-7.7,23.3-17.1,23.3c-7.8,0-14.4-7.2-16.5-17l4.9-5.1c1.3-1.4,1.4-3.5,0.1-4.7
		c-1.3-1.2-1.3-1.7-4.4,0C12,46.8,9.4,49.1,5,46.5c-0.2-3.1,10.5-12.2,13.3-10.2c4,2.9,5.5,5.1,5.5,5.1c1.3,1.4,3.4,1.5,4.7,0.3
		c1.2-1.2,1.2-3.3-0.2-4.7L16.9,25.4c-0.1-0.1-0.2-0.2-0.3-0.3l-0.4-0.4c-1.8-1.8-1-5.6,1.9-8.3c1.8-1.7,3.9-2.6,5.7-2.6
		c1.1,0,2,0.3,2.7,1l14,14.4C45,33.3,48,40.5,48,48.6z"/>
	<path class="st3" d="M36,35c-1.6,1.6-4,1.8-5.4,0.4L19.3,23.7c-1.3-1.4-1.1-3.8,0.6-5.4l0,0c1.6-1.6,4-1.8,5.4-0.4l11.3,11.7
		C37.9,31,37.7,33.4,36,35L36,35z"/>
	<circle class="st0" cx="22.9" cy="21.5" r="4.4"/>
	<circle class="st3" cx="22.6" cy="21.4" r="1.8"/>
	<circle class="st2" cx="22.6" cy="21.4" r="1.3"/>
</g>
<g>
	<path class="st4" d="M80.1,59.8c-0.2-0.1-0.4-0.3-0.6-0.5c-0.2-0.2-0.5-0.4-0.8-0.5c-0.3-0.2-0.7-0.3-1-0.4s-0.8-0.2-1.2-0.2
		c-0.6,0-1.1,0.1-1.5,0.2c-0.4,0.1-0.8,0.3-1,0.6c-0.3,0.2-0.5,0.5-0.6,0.8c-0.1,0.3-0.2,0.6-0.2,0.9c0,0.3,0.1,0.6,0.3,0.9
		s0.5,0.5,0.8,0.7s0.7,0.3,1.2,0.5c0.4,0.1,0.9,0.3,1.3,0.4c0.4,0.1,0.8,0.2,1.2,0.3c0.4,0.1,0.8,0.3,1.2,0.4s0.8,0.3,1.1,0.5
		c0.4,0.2,0.7,0.4,0.9,0.7c0.3,0.3,0.5,0.6,0.6,1c0.2,0.4,0.2,0.8,0.2,1.3c0,0.7-0.1,1.4-0.4,2c-0.3,0.6-0.7,1.1-1.2,1.5
		c-0.5,0.4-1.1,0.7-1.8,0.9s-1.4,0.3-2.2,0.3c-0.5,0-1.1-0.1-1.6-0.2c-0.5-0.1-1-0.3-1.5-0.5c-0.5-0.2-0.9-0.5-1.3-0.8
		c-0.4-0.3-0.8-0.7-1.1-1.1c-0.1-0.1-0.2-0.3-0.2-0.4c0-0.1,0.1-0.2,0.2-0.3l0.7-0.5c0,0,0.1-0.1,0.2-0.1s0.1,0,0.2,0
		c0,0,0.1,0,0.1,0c0,0,0.1,0.1,0.1,0.1c0,0,0.1,0.1,0.1,0.1s0.1,0.1,0.1,0.1c0.3,0.3,0.6,0.6,1,0.8c0.4,0.2,0.7,0.4,1.1,0.6
		c0.4,0.2,0.7,0.3,1.1,0.4c0.3,0.1,0.6,0.1,0.9,0.1c0.3,0,0.6,0,0.9-0.1c0.3-0.1,0.6-0.1,0.9-0.2c0.3-0.1,0.6-0.2,0.8-0.4
		s0.5-0.3,0.7-0.6s0.3-0.5,0.5-0.7c0.1-0.3,0.2-0.6,0.2-0.9c0-0.4-0.1-0.8-0.3-1.1s-0.5-0.5-0.9-0.7s-0.8-0.4-1.3-0.5
		c-0.5-0.1-1-0.3-1.5-0.4c-0.8-0.2-1.6-0.5-2.2-0.7c-0.6-0.3-1.2-0.5-1.6-0.9c-0.4-0.3-0.7-0.7-0.9-1.1s-0.3-0.9-0.3-1.4
		c0-0.6,0.1-1.2,0.4-1.7c0.2-0.5,0.6-1,1.1-1.3s1-0.7,1.7-0.9c0.6-0.2,1.4-0.3,2.2-0.3c0.4,0,0.8,0,1.3,0.1s0.8,0.2,1.2,0.4
		c0.4,0.2,0.8,0.4,1.2,0.6s0.7,0.5,1,0.8c0.1,0.1,0.2,0.2,0.3,0.3c0.1,0.1,0.1,0.2,0.1,0.3c0,0.1-0.1,0.2-0.2,0.3l-0.6,0.6
		C80.7,60,80.6,60,80.5,60C80.4,60,80.3,60,80.1,59.8z"/>
	<path class="st4" d="M106.7,56.7c0.1,0,0.2,0,0.3,0.1c0.1,0.1,0.1,0.2,0.2,0.3V58c0,0.1,0,0.3-0.1,0.3c-0.1,0.1-0.2,0.1-0.4,0.1
		h-4.4v13c0,0.1,0,0.2-0.1,0.3c-0.1,0.1-0.2,0.1-0.4,0.1h-0.8c-0.1,0-0.2,0-0.3-0.1c-0.1-0.1-0.1-0.2-0.1-0.3v-13h-4.4
		c-0.1,0-0.2,0-0.3-0.1c-0.1-0.1-0.1-0.2-0.1-0.4v-0.8c0-0.1,0-0.2,0.1-0.3c0.1-0.1,0.2-0.1,0.3-0.1H106.7z"/>
	<path class="st4" d="M123.3,65.6c0,0.7,0.1,1.3,0.3,1.9s0.5,1.1,0.9,1.5c0.4,0.4,0.8,0.8,1.4,1s1.2,0.4,1.9,0.4
		c0.7,0,1.4-0.1,1.9-0.4c0.6-0.2,1-0.6,1.4-1c0.4-0.4,0.7-0.9,0.9-1.5c0.2-0.6,0.3-1.2,0.3-1.8v-8.5c0-0.1,0-0.2,0.1-0.3
		c0.1-0.1,0.2-0.1,0.3-0.1h0.8c0.1,0,0.2,0,0.4,0.1s0.2,0.2,0.2,0.3v8.7c0,0.9-0.2,1.8-0.5,2.6s-0.8,1.4-1.3,2c-0.6,0.5-1.2,1-2,1.3
		c-0.8,0.3-1.6,0.5-2.4,0.5s-1.7-0.2-2.4-0.5c-0.8-0.3-1.4-0.8-2-1.3s-1-1.2-1.3-2c-0.3-0.8-0.5-1.6-0.5-2.4v-8.7
		c0-0.1,0-0.2,0.1-0.3c0.1-0.1,0.2-0.1,0.3-0.1h0.9c0.1,0,0.2,0,0.3,0.1c0.1,0.1,0.2,0.2,0.2,0.3V65.6z"/>
	<path class="st4" d="M149.4,57.2c0-0.3,0.2-0.5,0.5-0.5h4.6c0.7,0,1.4,0.1,2.1,0.3s1.3,0.4,1.8,0.8c0.6,0.3,1.1,0.7,1.5,1.2
		c0.5,0.5,0.9,1,1.2,1.5c0.3,0.6,0.6,1.2,0.8,1.8c0.2,0.7,0.3,1.3,0.3,2c0,0.7-0.1,1.4-0.3,2c-0.2,0.6-0.4,1.3-0.8,1.8
		c-0.3,0.6-0.7,1.1-1.2,1.5s-1,0.9-1.5,1.2s-1.2,0.6-1.8,0.8c-0.7,0.2-1.3,0.3-2,0.3h-4.6c-0.1,0-0.2,0-0.3-0.1
		c-0.1-0.1-0.1-0.2-0.1-0.3V57.2z M154.6,70.1c0.6,0,1.1-0.1,1.6-0.2c0.5-0.2,1-0.4,1.4-0.6c0.4-0.3,0.8-0.6,1.2-1s0.6-0.8,0.9-1.2
		c0.2-0.4,0.4-0.9,0.6-1.4s0.2-1,0.2-1.5c0-0.9-0.2-1.7-0.5-2.4c-0.3-0.7-0.7-1.3-1.3-1.8c-0.5-0.5-1.2-0.9-1.9-1.2
		c-0.7-0.3-1.5-0.4-2.2-0.4h-3.3v11.7H154.6z"/>
	<path class="st4" d="M178.7,71.4c0,0.2,0,0.3-0.1,0.3s-0.2,0.1-0.3,0.1h-0.8c-0.3,0-0.5-0.2-0.5-0.5V57.1c0-0.1,0-0.2,0.1-0.3
		c0.1-0.1,0.2-0.1,0.3-0.1h0.8c0.1,0,0.2,0,0.3,0.1c0.1,0.1,0.1,0.2,0.1,0.3V71.4z"/>
	<path class="st4" d="M201.4,56.5c0.7,0,1.4,0.1,2.1,0.3c0.7,0.2,1.3,0.4,1.9,0.8c0.6,0.3,1.1,0.7,1.6,1.2c0.5,0.5,0.9,1,1.2,1.6
		c0.3,0.6,0.6,1.2,0.8,1.9s0.3,1.4,0.3,2.1c0,0.7-0.1,1.4-0.3,2.1c-0.2,0.7-0.4,1.3-0.8,1.9c-0.3,0.6-0.7,1.1-1.2,1.6
		c-0.5,0.5-1,0.9-1.6,1.2c-0.6,0.3-1.2,0.6-1.9,0.8c-0.7,0.2-1.4,0.3-2.1,0.3c-0.7,0-1.4-0.1-2.1-0.3c-0.7-0.2-1.3-0.4-1.9-0.8
		c-0.6-0.3-1.1-0.7-1.6-1.2c-0.5-0.5-0.9-1-1.2-1.6c-0.3-0.6-0.6-1.2-0.8-1.9c-0.2-0.7-0.3-1.4-0.3-2.1c0-0.7,0.1-1.4,0.3-2.1
		c0.2-0.7,0.4-1.3,0.8-1.9c0.3-0.6,0.7-1.1,1.2-1.6c0.5-0.5,1-0.9,1.6-1.2c0.6-0.3,1.2-0.6,1.9-0.8S200.6,56.5,201.4,56.5z
		 M195.3,64.3c0,0.8,0.2,1.6,0.5,2.4c0.3,0.7,0.7,1.4,1.3,1.9c0.5,0.5,1.2,1,1.9,1.3c0.7,0.3,1.5,0.5,2.4,0.5c0.8,0,1.6-0.2,2.3-0.5
		c0.7-0.3,1.4-0.7,1.9-1.3c0.5-0.5,1-1.2,1.3-1.9s0.5-1.5,0.5-2.4c0-0.6-0.1-1.1-0.2-1.6c-0.1-0.5-0.3-1-0.6-1.4
		c-0.3-0.4-0.6-0.9-0.9-1.2c-0.4-0.4-0.8-0.7-1.2-0.9c-0.4-0.3-0.9-0.5-1.4-0.6c-0.5-0.1-1-0.2-1.6-0.2c-0.8,0-1.6,0.2-2.4,0.5
		s-1.4,0.7-1.9,1.3c-0.5,0.5-1,1.2-1.3,1.9C195.5,62.7,195.3,63.4,195.3,64.3z"/>
</g>
<rect x="59" y="25.6" class="st4" width="1.3" height="46.7"/>
<g>
	<path class="st5" d="M69,27.3c0-0.3,0.1-0.5,0.2-0.7c0.1-0.2,0.4-0.2,0.6-0.2h8.8c1.1,0,2,0.2,2.9,0.6c0.9,0.4,1.7,1,2.3,1.7
		c0.6,0.7,1.2,1.5,1.5,2.4C85.8,32,86,33,86,34c0,1-0.2,1.9-0.5,2.8s-0.9,1.7-1.5,2.4c-0.6,0.7-1.4,1.2-2.3,1.7s-1.9,0.6-2.9,0.6
		h-5.1V49c0,0.6-0.3,0.8-0.8,0.8h-3c-0.3,0-0.5-0.1-0.6-0.2C69.1,49.4,69,49.2,69,49V27.3z M81.3,33.9c0-0.4-0.1-0.8-0.2-1.3
		c-0.2-0.4-0.4-0.8-0.7-1.1c-0.3-0.3-0.6-0.6-1-0.8s-0.8-0.3-1.3-0.3h-4.4v6.8H78c0.5,0,0.9-0.1,1.3-0.3c0.4-0.2,0.8-0.4,1-0.8
		s0.5-0.7,0.7-1.1S81.3,34.4,81.3,33.9z"/>
	<path class="st5" d="M88.8,27.2c0-0.5,0.2-0.8,0.7-0.8h15.2c0.3,0,0.5,0.1,0.6,0.2c0.1,0.2,0.2,0.3,0.2,0.6V30
		c0,0.2-0.1,0.4-0.2,0.5s-0.3,0.2-0.6,0.2H93.4v4.8h8.6c0.2,0,0.4,0,0.5,0.1c0.1,0.1,0.2,0.3,0.2,0.6V39c0,0.2-0.1,0.4-0.2,0.5
		c-0.1,0.1-0.3,0.2-0.5,0.2h-8.6v5.7H105c0.3,0,0.5,0.1,0.6,0.2c0.1,0.1,0.1,0.3,0.1,0.6v2.9c0,0.4-0.2,0.7-0.7,0.7H89.5
		c-0.2,0-0.4-0.1-0.5-0.2s-0.2-0.3-0.2-0.5V27.2z"/>
	<path class="st5" d="M109,27.1c0-0.2,0.1-0.4,0.2-0.5c0.1-0.1,0.3-0.2,0.5-0.2h3.7c0.2,0,0.3,0,0.5,0.1c0.2,0.1,0.3,0.2,0.4,0.4
		l10.3,14.6V26.9c0.1-0.2,0.2-0.3,0.3-0.4c0.1-0.1,0.3-0.1,0.4-0.1h3.2c0.2,0,0.3,0.1,0.5,0.2c0.2,0.1,0.3,0.3,0.3,0.5v22
		c0,0.5-0.3,0.7-0.8,0.7h-3.3c-0.1,0-0.2,0-0.3-0.1s-0.2-0.2-0.3-0.4l-10.9-15.7v15.6c0,0.5-0.2,0.7-0.7,0.7h-3.2
		c-0.5,0-0.7-0.2-0.7-0.7V27.1z"/>
	<path class="st5" d="M149.2,31.9c-0.7-0.5-1.4-0.8-2.1-1.1c-0.8-0.3-1.6-0.4-2.4-0.4c-1.1,0-2,0.2-2.9,0.6c-0.9,0.4-1.7,1-2.3,1.6
		c-0.7,0.7-1.2,1.5-1.5,2.4c-0.4,0.9-0.5,1.9-0.5,3c0,1.1,0.2,2.1,0.5,3c0.4,0.9,0.9,1.7,1.5,2.4c0.6,0.7,1.4,1.2,2.3,1.6
		c0.9,0.4,1.9,0.6,2.9,0.6c0.5,0,0.9,0,1.4-0.1c0.5-0.1,1-0.1,1.5-0.3v-5.2c0-0.2,0.1-0.4,0.2-0.5s0.3-0.2,0.5-0.2h2.8
		c0.2,0,0.3,0.1,0.5,0.2c0.2,0.1,0.3,0.3,0.3,0.5v7.3c0,0.3-0.2,0.5-0.5,0.7c-1,0.7-2,1.1-3.2,1.5c-1.1,0.3-2.3,0.5-3.6,0.5
		c-1.1,0-2.2-0.1-3.2-0.4c-1-0.3-2-0.7-2.9-1.2c-0.9-0.5-1.7-1.2-2.4-1.9s-1.4-1.5-1.9-2.4s-0.9-1.8-1.2-2.9c-0.3-1-0.4-2.1-0.4-3.2
		s0.1-2.2,0.4-3.2c0.3-1,0.7-2,1.2-2.9s1.2-1.7,1.9-2.4s1.5-1.4,2.4-1.9c0.9-0.5,1.8-0.9,2.9-1.2c1-0.3,2.1-0.4,3.2-0.4
		c1.2,0,2.4,0.2,3.6,0.5c1.1,0.4,2.2,0.9,3.2,1.5c0.2,0.1,0.3,0.2,0.4,0.4c0.1,0.2,0.1,0.4,0,0.6l-1.5,2.6c-0.2,0.2-0.3,0.3-0.5,0.4
		S149.4,32.1,149.2,31.9z"/>
	<path class="st5" d="M161,40.6c0,0.7,0.1,1.4,0.4,2.1s0.6,1.2,1,1.7s1,0.9,1.6,1.2c0.6,0.3,1.3,0.4,2,0.4c0.7,0,1.4-0.1,2-0.4
		c0.6-0.3,1.1-0.7,1.6-1.2s0.8-1.1,1-1.7c0.2-0.7,0.4-1.3,0.4-2.1V27.1c0-0.2,0.1-0.4,0.2-0.5c0.1-0.1,0.3-0.2,0.5-0.2h3.1
		c0.2,0,0.4,0.1,0.5,0.2s0.3,0.3,0.3,0.5v13.4c0,1.3-0.3,2.6-0.8,3.7c-0.5,1.2-1.2,2.2-2.1,3.1c-0.9,0.9-1.9,1.6-3.1,2.1
		c-1.2,0.5-2.4,0.8-3.7,0.8c-0.9,0-1.7-0.1-2.5-0.3c-0.8-0.2-1.6-0.6-2.3-1s-1.4-0.9-2-1.5s-1.1-1.2-1.5-1.9c-0.4-0.7-0.7-1.5-1-2.3
		s-0.3-1.7-0.3-2.5V27.1c0-0.2,0.1-0.3,0.2-0.5c0.1-0.2,0.3-0.2,0.5-0.2h3.3c0.1,0,0.3,0.1,0.5,0.2c0.2,0.1,0.3,0.3,0.3,0.5V40.6z"
		/>
	<path class="st5" d="M180.3,27.1c0-0.2,0.1-0.4,0.2-0.5c0.1-0.1,0.3-0.2,0.5-0.2h3.2c0.2,0,0.3,0.1,0.5,0.2
		c0.2,0.1,0.3,0.3,0.3,0.5v22c0,0.5-0.3,0.7-0.8,0.7H181c-0.5,0-0.7-0.2-0.7-0.7V27.1z"/>
	<path class="st5" d="M190.1,27.1c0-0.2,0.1-0.4,0.2-0.5c0.1-0.1,0.3-0.2,0.5-0.2h3.7c0.2,0,0.3,0,0.5,0.1c0.2,0.1,0.3,0.2,0.4,0.4
		l10.3,14.6V26.9c0.1-0.2,0.2-0.3,0.3-0.4c0.1-0.1,0.3-0.1,0.4-0.1h3.2c0.2,0,0.3,0.1,0.5,0.2c0.2,0.1,0.3,0.3,0.3,0.5v22
		c0,0.5-0.3,0.7-0.8,0.7h-3.3c-0.1,0-0.2,0-0.3-0.1s-0.2-0.2-0.3-0.4l-10.9-15.7v15.6c0,0.5-0.2,0.7-0.7,0.7h-3.2
		c-0.5,0-0.7-0.2-0.7-0.7V27.1z"/>
</g>
</svg>
